# xmcd
# Track frame offsets:
# 182
# 13012
# 28465
# 40537
# 53950
# 66675
# 80017
# 93977
# 107500
# 121007
# 134097
# 147410
# 160537
# 174685
#
# Disc length: 2527 seconds
# Revision: 4
# Processed by: cddbd v1.5.2PL0 Copyright (c) Steve Scherf et al.
# Submitted via: VisiTrax 2.9.1.155 - For more info visit www.synapsa.com
#
DISCID=c409dd0e
DTITLE=Carter, Bo - Banana In Your Fruit Basket
DYEAR=1900
DGENRE=
TTITLE0=Pig Meat Is What I Crave
TTITLE1=What Kind of Scent Is This?
TTITLE2=Mashing That Thing
TTITLE3=Blue Runner Blues
TTITLE4=Howling Tom Cat Blues
TTITLE5=Don't Mash My Digger So Deep
TTITLE6=Pin In Your Cushion
TTITLE7=Ram Rod Daddy
TTITLE8=All Around Man
TTITLE9=Pussy Cat Blues
TTITLE10=My Pencil Won't Write No More
TTITLE11=Ants In My Pants
TTITLE12=Banana In Your Fruit Basket
TTITLE13=Cigarette Blues
EXTD=
EXTT0=
EXTT1=
EXTT2=
EXTT3=
EXTT4=
EXTT5=
EXTT6=
EXTT7=
EXTT8=
EXTT9=
EXTT10=
EXTT11=
EXTT12=
EXTT13=
PLAYORDER=
